<svg width="35" height="35" viewBox="0 0 35 35" fill="none" xmlns="http://www.w3.org/2000/svg">
<g clip-path="url(#clip0_3_6)">
<rect width="35" height="35" rx="5" fill="#2B2344"/>
<rect width="35" height="35" fill="#2B2344"/>
<path d="M18 5C11.37 5 6 10.5058 6 17.3035C6 22.7478 9.435 27.3463 14.205 28.9765C14.805 29.0842 15.03 28.715 15.03 28.3921C15.03 28.0999 15.015 27.131 15.015 26.1005C12 26.6696 11.22 25.347 10.98 24.6549C10.845 24.3012 10.26 23.2092 9.75 22.917C9.33 22.6863 8.73 22.1173 9.735 22.1019C10.68 22.0865 11.355 22.9939 11.58 23.363C12.66 25.2239 14.385 24.701 15.075 24.3781C15.18 23.5783 15.495 23.04 15.84 22.7325C13.17 22.4249 10.38 21.3637 10.38 16.6576C10.38 15.3196 10.845 14.2123 11.61 13.351C11.49 13.0434 11.07 11.7823 11.73 10.0906C11.73 10.0906 12.735 9.76762 15.03 11.3517C15.99 11.0749 17.01 10.9365 18.03 10.9365C19.05 10.9365 20.07 11.0749 21.03 11.3517C23.325 9.75224 24.33 10.0906 24.33 10.0906C24.99 11.7823 24.57 13.0434 24.45 13.351C25.215 14.2123 25.68 15.3042 25.68 16.6576C25.68 21.3791 22.875 22.4249 20.205 22.7325C20.64 23.1169 21.015 23.8552 21.015 25.0086C21.015 26.6542 21 27.9768 21 28.3921C21 28.715 21.225 29.0995 21.825 28.9765C24.2076 28.1525 26.278 26.583 27.7446 24.4888C29.2112 22.3947 30 19.8816 30 17.3035C30 10.5058 24.63 5 18 5Z" fill="white"/>
</g>
<defs>
<clipPath id="clip0_3_6">
<rect width="35" height="35" rx="5" fill="white"/>
</clipPath>
</defs>
</svg>
