<svg width="35" height="35" viewBox="0 0 35 35" fill="none" xmlns="http://www.w3.org/2000/svg">
<rect width="35" height="35" rx="5" fill="white"/>
<rect width="35" height="35" rx="5" fill="#2B2344"/>
<path fill-rule="evenodd" clip-rule="evenodd" d="M18 5C14.7415 5 14.3326 5.01385 13.0523 5.072C11.7748 5.13015 10.9025 5.33323 10.1391 5.62954C9.33851 5.93106 8.61334 6.40358 8.01415 7.01415C7.40347 7.61361 6.93094 8.3391 6.62954 9.14C6.33323 9.90246 6.13108 10.7748 6.072 12.0523C6.01385 13.3326 6 13.7415 6 17C6 20.2585 6.01385 20.6674 6.072 21.9477C6.13015 23.2252 6.33323 24.0975 6.62954 24.86C6.93692 25.6492 7.34677 26.3185 8.01415 26.9858C8.61334 27.5964 9.33851 28.0689 10.1391 28.3705C10.9025 28.6658 11.7748 28.8689 13.0523 28.928C14.3326 28.9862 14.7415 29 18 29C21.2585 29 21.6674 28.9862 22.9477 28.928C24.2252 28.8698 25.0975 28.6668 25.86 28.3705C26.6609 28.0691 27.3864 27.5966 27.9858 26.9858C28.5965 26.3864 29.0691 25.6609 29.3705 24.86C29.6658 24.0975 29.8689 23.2252 29.928 21.9477C29.9862 20.6674 30 20.2585 30 17C30 13.7415 29.9862 13.3326 29.928 12.0523C29.8698 10.7748 29.6668 9.90246 29.3695 9.14C29.0684 8.33918 28.5962 7.6137 27.9858 7.01415C27.3864 6.40345 26.6609 5.93091 25.86 5.62954C25.0975 5.33415 24.2252 5.13108 22.9477 5.072C21.6674 5.01385 21.2585 5 18 5ZM18 7.16185C21.204 7.16185 21.5834 7.17477 22.8489 7.232C24.0185 7.28554 24.6545 7.48123 25.0772 7.64554C25.6375 7.86338 26.0372 8.12277 26.4572 8.54277C26.8772 8.96277 27.1366 9.36246 27.3545 9.92277C27.5188 10.3455 27.7145 10.9806 27.768 12.1511C27.8252 13.4157 27.8382 13.796 27.8382 17C27.8382 20.204 27.8252 20.5834 27.768 21.8489C27.7145 23.0194 27.5188 23.6545 27.3545 24.0772C27.1622 24.5985 26.8557 25.07 26.4572 25.4572C26.0701 25.8557 25.5985 26.1623 25.0772 26.3545C24.6545 26.5188 24.0185 26.7145 22.8489 26.768C21.5843 26.8252 21.204 26.8382 18 26.8382C14.796 26.8382 14.4157 26.8252 13.1511 26.768C11.9806 26.7145 11.3455 26.5188 10.9228 26.3545C10.4015 26.1623 9.92994 25.8557 9.54277 25.4572C9.1444 25.07 8.83782 24.5985 8.64554 24.0772C8.48123 23.6545 8.28554 23.0194 8.232 21.8489C8.17477 20.5843 8.16185 20.204 8.16185 17C8.16185 13.796 8.17477 13.4166 8.232 12.1511C8.28554 10.9806 8.48123 10.3455 8.64554 9.92277C8.86338 9.36246 9.12277 8.96277 9.54277 8.54277C9.92996 8.14435 10.4015 7.83776 10.9228 7.64554C11.3455 7.48123 11.9806 7.28554 13.1511 7.232C14.4157 7.17477 14.796 7.16185 18 7.16185Z" fill="white"/>
<path fill-rule="evenodd" clip-rule="evenodd" d="M18 10.5385C16.2863 10.5385 14.6428 11.2192 13.431 12.431C12.2192 13.6428 11.5385 15.2863 11.5385 17C11.5385 18.7137 12.2192 20.3572 13.431 21.569C14.6428 22.7808 16.2863 23.4615 18 23.4615C19.7137 23.4615 21.3572 22.7808 22.569 21.569C23.7808 20.3572 24.4615 18.7137 24.4615 17C24.4615 15.2863 23.7808 13.6428 22.569 12.431C21.3572 11.2192 19.7137 10.5385 18 10.5385ZM18 21.1538C16.8983 21.1538 15.8418 20.7162 15.0628 19.9372C14.2838 19.1582 13.8462 18.1017 13.8462 17C13.8462 15.8983 14.2838 14.8418 15.0628 14.0628C15.8418 13.2838 16.8983 12.8462 18 12.8462C19.1017 12.8462 20.1582 13.2838 20.9372 14.0628C21.7162 14.8418 22.1539 15.8983 22.1539 17C22.1539 18.1017 21.7162 19.1582 20.9372 19.9372C20.1582 20.7162 19.1017 21.1538 18 21.1538ZM26.0308 10.6308C26.0308 10.8247 25.9926 11.0168 25.9184 11.196C25.8441 11.3752 25.7353 11.538 25.5982 11.6751C25.461 11.8123 25.2982 11.921 25.119 11.9953C24.9399 12.0695 24.7478 12.1077 24.5539 12.1077C24.3599 12.1077 24.1678 12.0695 23.9887 11.9953C23.8095 11.921 23.6467 11.8123 23.5095 11.6751C23.3724 11.538 23.2636 11.3752 23.1894 11.196C23.1151 11.0168 23.0769 10.8247 23.0769 10.6308C23.0769 10.2391 23.2325 9.8634 23.5095 9.58643C23.7865 9.30945 24.1621 9.15385 24.5539 9.15385C24.9456 9.15385 25.3212 9.30945 25.5982 9.58643C25.8752 9.8634 26.0308 10.2391 26.0308 10.6308Z" fill="white"/>
</svg>
