<svg width="50" height="50" viewBox="0 0 50 50" fill="none" xmlns="http://www.w3.org/2000/svg">
<g clip-path="url(#clip0_1_2)">
<rect width="50" height="50" fill="white"/>
<circle cx="25" cy="25" r="25" fill="#EF6D52"/>
<path d="M39.2108 14.8592L25.3648 10.0616C25.1279 9.97948 24.8718 9.97948 24.635 10.0616L10.7889 14.8592C10.5592 14.9389 10.3594 15.0916 10.2178 15.2958C10.0762 15.5001 9.99998 15.7454 10 15.9972V27.9914C10 28.3095 10.1216 28.6146 10.338 28.8395C10.5543 29.0645 10.8478 29.1908 11.1538 29.1908C11.4599 29.1908 11.7533 29.0645 11.9697 28.8395C12.1861 28.6146 12.3077 28.3095 12.3077 27.9914V17.6614L17.1523 19.3391C15.8652 21.5007 15.4559 24.105 16.0143 26.5801C16.5727 29.0552 18.0532 31.1988 20.1307 32.5402C17.5346 33.5987 15.2903 35.5133 13.649 38.131C13.5636 38.2629 13.5044 38.4111 13.4746 38.567C13.4448 38.7229 13.4451 38.8834 13.4756 39.0392C13.506 39.195 13.5659 39.3429 13.6518 39.4744C13.7377 39.6059 13.8479 39.7184 13.976 39.8052C14.1041 39.892 14.2475 39.9515 14.3979 39.9803C14.5483 40.009 14.7026 40.0063 14.852 39.9725C15.0015 39.9386 15.1429 39.8743 15.2682 39.7831C15.3934 39.6919 15.5 39.5758 15.5817 39.4414C17.7552 35.9751 21.1879 33.9885 24.9999 33.9885C28.8119 33.9885 32.2445 35.9751 34.4181 39.4414C34.5873 39.7029 34.8487 39.8846 35.1458 39.9473C35.4429 40.01 35.7518 39.9486 36.0057 39.7765C36.2596 39.6043 36.4382 39.3352 36.5027 39.0273C36.5673 38.7194 36.5127 38.3974 36.3507 38.131C34.7094 35.5133 32.4565 33.5987 29.8691 32.5402C31.9446 31.1989 33.4237 29.0567 33.982 26.5834C34.5403 24.1101 34.1323 21.5076 32.8474 19.3466L39.2108 17.1426C39.4406 17.0631 39.6405 16.9103 39.7821 16.7061C39.9238 16.5019 40 16.2565 40 16.0047C40 15.7529 39.9238 15.5075 39.7821 15.3033C39.6405 15.099 39.4406 14.9463 39.2108 14.8667V14.8592ZM31.9229 24.3931C31.9232 25.5309 31.664 26.6525 31.1666 27.6659C30.6691 28.6794 29.9476 29.5558 29.0613 30.2232C28.1749 30.8907 27.1489 31.3302 26.0675 31.5056C24.9861 31.6811 23.8801 31.5875 22.8402 31.2326C21.8004 30.8777 20.8563 30.2715 20.0854 29.4639C19.3145 28.6562 18.7388 27.6701 18.4056 26.5864C18.0723 25.5027 17.991 24.3523 18.1683 23.2296C18.3455 22.1068 18.7764 21.0438 19.4254 20.1277L24.635 21.9268C24.8718 22.0089 25.1279 22.0089 25.3648 21.9268L30.5743 20.1277C31.4509 21.3632 31.9235 22.8581 31.9229 24.3931Z" fill="white"/>
</g>
<defs>
<clipPath id="clip0_1_2">
<rect width="50" height="50" fill="white"/>
</clipPath>
</defs>
</svg>
