<svg width="35" height="35" viewBox="0 0 35 35" fill="none" xmlns="http://www.w3.org/2000/svg">
<rect width="35" height="35" rx="5" fill="white"/>
<rect width="35" height="35" rx="5" fill="#2B2344"/>
<path d="M11.7755 13.405V13.405H7.07145C6.74693 13.4048 6.48376 13.6731 6.48354 14.0041V14.0041V28.4002C6.48333 28.7313 6.74628 28.9998 7.07074 29V29H11.7747C12.0993 29.0002 12.3624 28.7319 12.3627 28.4009V28.4009V14.0049C12.3629 13.6738 12.0999 13.4053 11.7755 13.405ZM11.1868 27.8004H7.65937V14.6047H11.1868V27.8004ZM24.1209 13.405C22.8453 13.4051 21.6054 13.8346 20.5934 14.6269V14.0049C20.5936 13.6738 20.3307 13.4053 20.0062 13.405V13.405H15.3022C14.9777 13.4048 14.7145 13.6731 14.7143 14.0041V14.0041V28.4002C14.7141 28.7313 14.977 28.9998 15.3016 29V29H20.0055C20.33 29.0002 20.5932 28.7319 20.5934 28.4009V28.4009V21.8023C20.5934 20.8085 21.3831 20.0029 22.3572 20.0029C23.3312 20.0029 24.1209 20.8085 24.1209 21.8023V28.4002C24.1207 28.7313 24.3836 28.9998 24.7082 29V29H29.4121C29.7366 29.0002 29.9998 28.7319 30 28.4009V28.4009V19.4031C29.9962 16.0921 27.3662 13.4089 24.1209 13.405ZM28.8242 27.8004H25.2967V21.8023C25.2967 20.146 23.9807 18.8033 22.3572 18.8033C20.7336 18.8033 19.4176 20.146 19.4176 21.8023V27.8004H15.8901V14.6047H19.4176V16.0479C19.4176 16.3028 19.5756 16.5298 19.8115 16.6138C20.0468 16.7003 20.3101 16.6234 20.4649 16.4228C22.067 14.3513 25.0117 13.9972 27.0421 15.6318C28.1731 16.5423 28.8304 17.9332 28.8242 19.4031V27.8004ZM9.85578 5.00996C9.71749 5.00008 9.57869 4.99935 9.44032 5.00777C7.66568 4.8841 6.1288 6.2516 6.00759 8.06215C6.00271 8.135 6.00027 8.20793 6.00012 8.28093C5.98484 10.0761 7.39885 11.544 9.15842 11.5596C9.23026 11.5602 9.30203 11.5583 9.37372 11.554H9.40702C11.1783 11.6805 12.7146 10.318 12.8385 8.51091C12.9625 6.7038 11.627 5.13641 9.85578 5.00996ZM9.81516 10.3578C9.67938 10.3706 9.54259 10.3695 9.40702 10.3544H9.37372C8.2495 10.4426 7.26817 9.58429 7.18176 8.43732C7.09535 7.29043 7.9366 6.28917 9.06082 6.20101C9.18727 6.19113 9.3143 6.19325 9.44032 6.20738C10.5637 6.1018 11.5583 6.94528 11.6619 8.09136C11.7653 9.23753 10.9386 10.2523 9.81516 10.3578Z" fill="white"/>
</svg>
