<svg width="75" height="75" viewBox="0 0 75 75" fill="none" xmlns="http://www.w3.org/2000/svg">
<rect width="75" height="75" rx="37.5" fill="#EF6D52"/>
<path d="M27.9167 34.3317C27.5079 34.3317 27.1155 34.3941 26.725 34.4509C26.8515 34.0256 26.9817 33.5929 27.1907 33.2042C27.3997 32.6396 27.726 32.1501 28.0505 31.6569C28.3219 31.1234 28.8004 30.7622 29.1524 30.3057C29.5209 29.8621 30.0232 29.5669 30.421 29.1984C30.8115 28.8134 31.323 28.6209 31.73 28.3496C32.1554 28.1057 32.5257 27.8362 32.9217 27.7079L33.9099 27.3009L34.7789 26.9397L33.8897 23.3867L32.7952 23.6507C32.445 23.7387 32.0179 23.8414 31.532 23.9642C31.0352 24.0559 30.5054 24.3071 29.915 24.5362C29.332 24.7966 28.6574 24.9726 28.0304 25.3906C27.3997 25.7902 26.6719 26.1239 26.0302 26.6592C25.4087 27.2111 24.6589 27.6896 24.1052 28.3917C23.5002 29.0481 22.9025 29.7374 22.4387 30.5221C21.9015 31.2701 21.5367 32.0914 21.1517 32.9036C20.8034 33.7157 20.5229 34.5462 20.2937 35.3529C19.8592 36.9699 19.6649 38.5062 19.5897 39.8207C19.5274 41.1371 19.564 42.2316 19.641 43.0236C19.6685 43.3976 19.7199 43.7606 19.7565 44.0117L19.8024 44.3197L19.85 44.3087C20.1761 45.8319 20.9267 47.2317 22.0151 48.346C23.1035 49.4604 24.4851 50.2439 26.0002 50.6059C27.5153 50.9679 29.1018 50.8935 30.5764 50.3914C32.051 49.8893 33.3533 48.98 34.3326 47.7687C35.312 46.5574 35.9284 45.0936 36.1106 43.5466C36.2928 41.9996 36.0333 40.4326 35.3621 39.0269C34.6909 37.6212 33.6355 36.4343 32.3179 35.6034C31.0003 34.7725 29.4744 34.3316 27.9167 34.3317ZM48.0834 34.3317C47.6745 34.3317 47.2822 34.3941 46.8917 34.4509C47.0182 34.0256 47.1484 33.5929 47.3574 33.2042C47.5664 32.6396 47.8927 32.1501 48.2172 31.6569C48.4885 31.1234 48.967 30.7622 49.319 30.3057C49.6875 29.8621 50.1899 29.5669 50.5877 29.1984C50.9782 28.8134 51.4897 28.6209 51.8967 28.3496C52.322 28.1057 52.6924 27.8362 53.0884 27.7079L54.0765 27.3009L54.9455 26.9397L54.0564 23.3867L52.9619 23.6507C52.6117 23.7387 52.1845 23.8414 51.6987 23.9642C51.2019 24.0559 50.672 24.3071 50.0817 24.5362C49.5005 24.7984 48.824 24.9726 48.197 25.3924C47.5664 25.7921 46.8385 26.1257 46.1969 26.6611C45.5754 27.2129 44.8255 27.6914 44.2719 28.3917C43.6669 29.0481 43.0692 29.7374 42.6054 30.5221C42.0682 31.2701 41.7034 32.0914 41.3184 32.9036C40.97 33.7157 40.6895 34.5462 40.4604 35.3529C40.0259 36.9699 39.8315 38.5062 39.7564 39.8207C39.694 41.1371 39.7307 42.2316 39.8077 43.0236C39.8352 43.3976 39.8865 43.7606 39.9232 44.0117L39.969 44.3197L40.0167 44.3087C40.3428 45.8319 41.0934 47.2317 42.1818 48.346C43.2702 49.4604 44.6518 50.2439 46.1669 50.6059C47.6819 50.9679 49.2685 50.8935 50.7431 50.3914C52.2176 49.8893 53.5199 48.98 54.4993 47.7687C55.4787 46.5574 56.0951 45.0936 56.2773 43.5466C56.4595 41.9996 56.2 40.4326 55.5288 39.0269C54.8576 37.6212 53.8021 36.4343 52.4846 35.6034C51.167 34.7725 49.6411 34.3316 48.0834 34.3317Z" fill="white"/>
</svg>
