<svg width="50" height="50" viewBox="0 0 50 50" fill="none" xmlns="http://www.w3.org/2000/svg">
<g clip-path="url(#clip0_2_66)">
<rect width="50" height="50" fill="white"/>
<circle cx="25" cy="25" r="25" fill="#EF6D52"/>
<path d="M35.3124 31.139V28.0696C35.3124 27.4428 35.5406 26.8416 35.9467 26.3984C36.3528 25.9552 36.9036 25.7062 37.4779 25.7062H37.9841L37.9843 22.6722C36.0637 22.6243 34.1452 22.8304 32.2702 23.2863C29.8226 23.8826 27.4912 24.9481 25.3843 26.4324V40C28.9843 36.4188 33.2075 35.0477 37.9658 35.9994V33.4979H37.4596C36.8893 33.4925 36.3439 33.2417 35.9419 32.8003C35.54 32.3586 35.3139 31.7618 35.3128 31.1392L35.3124 31.139Z" fill="white"/>
<mask id="mask0_2_66" style="mask-type:luminance" maskUnits="userSpaceOnUse" x="36" y="26" width="4" height="7">
<path d="M36.1949 26.7549H40V32.4738H36.1949V26.7549Z" fill="white"/>
</mask>
<g mask="url(#mask0_2_66)">
<path d="M38.8 26.7653H37.4595C37.1404 26.7625 36.8333 26.8985 36.6066 27.1435C36.3796 27.3882 36.2514 27.7216 36.25 28.0699V31.1393C36.25 31.4868 36.3765 31.8199 36.6015 32.0653C36.8266 32.3111 37.1318 32.4489 37.45 32.4489H38.7907C39.1103 32.4504 39.4172 32.3131 39.6439 32.0676C39.8707 31.8219 39.9989 31.4881 40 31.1393V28.0699C39.9977 27.7239 39.8702 27.3928 39.6455 27.1486C39.4209 26.9044 39.1171 26.7665 38.8 26.7653Z" fill="white"/>
</g>
<mask id="mask1_2_66" style="mask-type:luminance" maskUnits="userSpaceOnUse" x="10" y="26" width="4" height="7">
<path d="M10 26.7549H13.8053V32.4738H10V26.7549Z" fill="white"/>
</mask>
<g mask="url(#mask1_2_66)">
<path d="M13.7502 31.139V28.0696C13.7502 27.7248 13.6248 27.3945 13.4015 27.1508C13.1782 26.9071 12.8754 26.7701 12.5595 26.7701H11.1909C10.875 26.7701 10.5722 26.9071 10.3489 27.1508C10.1256 27.3945 10.0002 27.7248 10.0002 28.0696V31.139C10.0013 31.4832 10.1272 31.813 10.3502 32.0564C10.5733 32.2999 10.8755 32.4372 11.1909 32.4385H12.5502C12.8672 32.44 13.1717 32.3037 13.3969 32.06C13.6218 31.8163 13.7491 31.485 13.7502 31.139Z" fill="white"/>
</g>
<path d="M17.5004 23.2812C15.6373 22.8314 13.7316 22.6271 11.8238 22.6725V25.7115H12.5504C13.1198 25.7168 13.6641 25.9679 14.0647 26.4096C14.4652 26.8515 14.6892 27.4483 14.6878 28.0698V31.1392C14.6878 31.7635 14.4608 32.362 14.0563 32.8032C13.6521 33.2447 13.1036 33.4927 12.5316 33.4927H11.8238V35.9996C16.5863 35.0481 20.8099 36.3885 24.4142 39.995L24.4145 26.4326C22.309 24.9521 19.9813 23.8872 17.5381 23.2866L17.5004 23.2812Z" fill="white"/>
<path d="M19.1123 22.6366C21.1567 23.2875 23.1047 24.2559 24.8967 25.5118C26.6872 24.2504 28.6355 23.2786 30.681 22.6264C28.8477 21.7948 26.8815 21.3675 24.8958 21.369C22.9103 21.3708 20.9446 21.8016 19.1124 22.6366H19.1123Z" fill="white"/>
<path d="M25.211 20.3035C26.4631 20.3035 27.6636 19.7607 28.5489 18.7945C29.4342 17.8283 29.9315 16.5179 29.9315 15.1516C29.9315 13.7854 29.4342 12.4749 28.5489 11.509C27.6636 10.5428 26.4632 10 25.211 10C23.9592 10 22.7587 10.5428 21.8734 11.509C20.9881 12.4749 20.4908 13.7853 20.4908 15.1516C20.4908 16.5179 20.9881 17.8283 21.8734 18.7945C22.7587 19.7607 23.9591 20.3035 25.211 20.3035Z" fill="white"/>
</g>
<defs>
<clipPath id="clip0_2_66">
<rect width="50" height="50" fill="white"/>
</clipPath>
</defs>
</svg>
