<svg width="35" height="35" viewBox="0 0 35 35" fill="none" xmlns="http://www.w3.org/2000/svg">
<rect width="35" height="35" rx="5" fill="#2B2344"/>
<path d="M18.581 16.212L13.795 9.502C13.7395 9.42404 13.6662 9.36049 13.5811 9.31666C13.496 9.27282 13.4017 9.24996 13.306 9.25H10.78C10.6699 9.25014 10.562 9.28057 10.468 9.33797C10.374 9.39536 10.2977 9.4775 10.2473 9.57539C10.1969 9.67328 10.1744 9.78315 10.1823 9.89296C10.1902 10.0028 10.2281 10.1083 10.292 10.198L16.419 18.788M18.581 16.212L24.708 24.802C24.7719 24.8917 24.8098 24.9972 24.8177 25.107C24.8256 25.2169 24.8031 25.3267 24.7527 25.4246C24.7023 25.5225 24.626 25.6046 24.532 25.662C24.438 25.7194 24.3301 25.7499 24.22 25.75H21.694C21.5983 25.75 21.504 25.7272 21.4189 25.6833C21.3339 25.6395 21.2605 25.576 21.205 25.498L16.419 18.788M18.581 16.212L24.423 9.25M16.419 18.788L10.577 25.75" stroke="white" stroke-width="1.5" stroke-linecap="round" stroke-linejoin="round"/>
</svg>
