<svg width="60" height="60" viewBox="0 0 60 60" fill="none" xmlns="http://www.w3.org/2000/svg">
<rect width="60" height="60" rx="5" fill="#2B2344"/>
<path d="M21.2773 16.4062V42H16.4434V16.4062H21.2773ZM31.5957 27.4629V31.2773H20.0117V27.4629H31.5957ZM32.9492 16.4062V20.2207H20.0117V16.4062H32.9492ZM40.0684 26.8652V42H35.4277V22.9805H39.8223L40.0684 26.8652ZM45.8516 22.8574L45.7812 27.1816C45.5234 27.1348 45.2305 27.0996 44.9023 27.0762C44.5859 27.0527 44.2871 27.041 44.0059 27.041C43.291 27.041 42.6641 27.1406 42.125 27.3398C41.5859 27.5273 41.1348 27.8027 40.7715 28.166C40.4199 28.5293 40.1504 28.9746 39.9629 29.502C39.7754 30.0176 39.6699 30.6035 39.6465 31.2598L38.6445 31.1367C38.6445 29.9297 38.7676 28.8105 39.0137 27.7793C39.2598 26.748 39.6172 25.8457 40.0859 25.0723C40.5547 24.2988 41.1406 23.7012 41.8438 23.2793C42.5586 22.8457 43.3789 22.6289 44.3047 22.6289C44.5625 22.6289 44.8379 22.6523 45.1309 22.6992C45.4355 22.7344 45.6758 22.7871 45.8516 22.8574Z" fill="#FF6A6A"/>
</svg>
