<svg width="152" height="240" viewBox="0 0 152 240" fill="none" xmlns="http://www.w3.org/2000/svg">
<circle cx="55" cy="3" r="3" fill="#202020"/>
<circle cx="55" cy="29" r="3" fill="#202020"/>
<circle cx="55" cy="55" r="3" fill="#202020"/>
<circle cx="55" cy="81" r="3" fill="#EF6D52"/>
<circle cx="55" cy="107" r="3" fill="#EF6D52"/>
<circle cx="55" cy="133" r="3" fill="#202020"/>
<circle cx="55" cy="159" r="3" fill="#EF6D52"/>
<circle cx="55" cy="185" r="3" fill="#EF6D52"/>
<circle cx="55" cy="211" r="3" fill="#202020"/>
<circle cx="55" cy="237" r="3" fill="#EF6D52"/>
<circle cx="29" cy="3" r="3" fill="#202020"/>
<circle cx="29" cy="29" r="3" fill="#202020"/>
<circle cx="29" cy="55" r="3" fill="#202020"/>
<circle cx="29" cy="81" r="3" fill="#EF6D52"/>
<circle cx="29" cy="107" r="3" fill="#EF6D52"/>
<circle cx="29" cy="133" r="3" fill="#202020"/>
<circle cx="29" cy="159" r="3" fill="#EF6D52"/>
<circle cx="29" cy="185" r="3" fill="#EF6D52"/>
<circle cx="29" cy="211" r="3" fill="#202020"/>
<circle cx="29" cy="237" r="3" fill="#EF6D52"/>
<circle cx="3" cy="3" r="3" fill="#202020"/>
<circle cx="3" cy="29" r="3" fill="#202020"/>
<circle cx="3" cy="55" r="3" fill="#202020"/>
<circle cx="3" cy="81" r="3" fill="#EF6D52"/>
<circle cx="3" cy="107" r="3" fill="#EF6D52"/>
<circle cx="3" cy="133" r="3" fill="#202020"/>
<circle cx="3" cy="159" r="3" fill="#EF6D52"/>
<circle cx="3" cy="185" r="3" fill="#EF6D52"/>
<circle cx="3" cy="211" r="3" fill="#202020"/>
<circle cx="3" cy="237" r="3" fill="#EF6D52"/>
<circle cx="81" cy="3" r="3" fill="#202020"/>
<circle cx="81" cy="29" r="3" fill="#202020"/>
<circle cx="81" cy="81" r="3" fill="#EF6D52"/>
<circle cx="81" cy="107" r="3" fill="#EF6D52"/>
<circle cx="81" cy="159" r="3" fill="#EF6D52"/>
<circle cx="81" cy="185" r="3" fill="#EF6D52"/>
<circle cx="81" cy="237" r="3" fill="#EF6D52"/>
<circle cx="107" cy="3" r="3" fill="#202020"/>
<circle cx="107" cy="29" r="3" fill="#202020"/>
<circle cx="107" cy="81" r="3" fill="#EF6D52"/>
<circle cx="107" cy="107" r="3" fill="#EF6D52"/>
<circle cx="107" cy="159" r="3" fill="#EF6D52"/>
<circle cx="107" cy="185" r="3" fill="#EF6D52"/>
<circle cx="107" cy="237" r="3" fill="#EF6D52"/>
<circle cx="133" cy="3" r="3" fill="#202020"/>
<circle cx="133" cy="29" r="3" fill="#202020"/>
<circle cx="133" cy="81" r="3" fill="#EF6D52"/>
<circle cx="133" cy="107" r="3" fill="#EF6D52"/>
<circle cx="133" cy="159" r="3" fill="#EF6D52"/>
<circle cx="133" cy="185" r="3" fill="#EF6D52"/>
<circle cx="133" cy="237" r="3" fill="#EF6D52"/>
</svg>
