<svg width="40" height="40" viewBox="0 0 40 40" fill="none" xmlns="http://www.w3.org/2000/svg">
<circle cx="20" cy="20" r="20" fill="#1877F2"/>
<path d="M21.4002 18.962L16.6142 12.252C16.5587 12.174 16.4854 12.1105 16.4003 12.0667C16.3152 12.0228 16.2209 12 16.1252 12H13.5992C13.4891 12.0001 13.3812 12.0306 13.2872 12.088C13.1933 12.1454 13.1169 12.2275 13.0665 12.3254C13.0161 12.4233 12.9937 12.5332 13.0015 12.643C13.0094 12.7528 13.0474 12.8583 13.1112 12.948L19.2382 21.538M21.4002 18.962L27.5272 27.552C27.5911 27.6417 27.629 27.7472 27.6369 27.857C27.6448 27.9669 27.6223 28.0767 27.5719 28.1746C27.5215 28.2725 27.4452 28.3546 27.3512 28.412C27.2572 28.4694 27.1493 28.4999 27.0392 28.5H24.5132C24.4175 28.5 24.3232 28.4772 24.2381 28.4333C24.1531 28.3895 24.0797 28.326 24.0242 28.248L19.2382 21.538M21.4002 18.962L27.2422 12M19.2382 21.538L13.3962 28.5" stroke="white" stroke-width="1.5" stroke-linecap="round" stroke-linejoin="round"/>
</svg>
