<svg width="75" height="75" viewBox="0 0 75 75" fill="none" xmlns="http://www.w3.org/2000/svg">
<g clip-path="url(#clip0_1_2)">
<rect width="75" height="75" fill="white"/>
<rect width="75" height="75" fill="#EF6D52"/>
<path fill-rule="evenodd" clip-rule="evenodd" d="M17 23.3333C17 21.9188 17.602 20.5623 18.6737 19.5621C19.7453 18.5619 21.1988 18 22.7143 18H51.2857C52.8012 18 54.2547 18.5619 55.3263 19.5621C56.398 20.5623 57 21.9188 57 23.3333V44.6667C57 46.0812 56.398 47.4377 55.3263 48.4379C54.2547 49.4381 52.8012 50 51.2857 50H44.9429L45.2943 51.304L47.5914 53.448C47.9909 53.8209 48.2629 54.296 48.3731 54.8132C48.4833 55.3305 48.4267 55.8665 48.2105 56.3537C47.9943 56.8409 47.6282 57.2574 47.1585 57.5504C46.6887 57.8434 46.1364 57.9999 45.5714 58H28.4286C27.8636 57.9999 27.3113 57.8434 26.8415 57.5504C26.3718 57.2574 26.0057 56.8409 25.7895 56.3537C25.5733 55.8665 25.5167 55.3305 25.6269 54.8132C25.7371 54.296 26.0091 53.8209 26.4086 53.448L28.7057 51.304L29.0571 50H22.7143C21.1988 50 19.7453 49.4381 18.6737 48.4379C17.602 47.4377 17 46.0812 17 44.6667V23.3333ZM33.4886 42H22.7143V23.3333H51.2857V42H33.4886Z" fill="white"/>
</g>
<defs>
<clipPath id="clip0_1_2">
<rect width="75" height="75" fill="white"/>
</clipPath>
</defs>
</svg>
