<svg width="75" height="75" viewBox="0 0 75 75" fill="none" xmlns="http://www.w3.org/2000/svg">
<g clip-path="url(#clip0_2_48)">
<rect width="75" height="75" fill="white"/>
<rect width="75" height="75" fill="#EF6D52"/>
<g clip-path="url(#clip1_2_48)">
<path d="M37.3844 51.5297H31.2345V50.9148C31.2345 50.5754 31.51 50.2998 31.8494 50.2998C32.1894 50.2998 32.4643 50.0249 32.4643 49.6849C32.4643 49.3449 32.1894 49.07 31.8494 49.07C30.8322 49.07 30.0043 49.8979 30.0043 50.915V52.1449C30.0043 52.4849 30.2793 52.7598 30.6192 52.7598H37.3844C37.7244 52.7598 37.9993 52.4849 37.9993 52.1449C37.9996 51.8046 37.7246 51.5297 37.3844 51.5297Z" fill="white"/>
<mask id="mask0_2_48" style="mask-type:luminance" maskUnits="userSpaceOnUse" x="39" y="26" width="19" height="32">
<path d="M39.1719 26.9062H57.6797V57.6797H39.1719V26.9062Z" fill="white"/>
</mask>
<g mask="url(#mask0_2_48)">
<path d="M55.8352 26.9297H41.075C40.0578 26.9297 39.2299 27.7577 39.2299 28.7748V55.8349C39.2299 56.8521 40.0579 57.68 41.075 57.68H55.8352C56.8523 57.68 57.6802 56.852 57.6802 55.8349L57.6799 28.7748C57.6799 27.7576 56.8523 26.9297 55.8352 26.9297ZM56.4501 55.8352C56.4501 56.1745 56.1745 56.4501 55.8352 56.4501H41.075C40.7356 56.4501 40.4601 56.1745 40.4601 55.8352V28.775C40.4601 28.4363 40.7356 28.1601 41.075 28.1601H55.8352C56.1745 28.1601 56.4501 28.4363 56.4501 28.775V55.8352Z" fill="white"/>
</g>
<path d="M47.225 30.6203H49.685C50.025 30.6203 50.2999 30.3447 50.2999 30.0054C50.2999 29.666 50.025 29.3905 49.685 29.3905H47.225C46.885 29.3905 46.6101 29.666 46.6101 30.0054C46.6101 30.3447 46.885 30.6203 47.225 30.6203Z" fill="white"/>
<path d="M54.6047 25.7C54.9447 25.7 55.2196 25.4244 55.2196 25.0851V21.3949C55.2196 21.0556 54.9447 20.78 54.6047 20.78H21.3945C21.0546 20.78 20.7796 21.0556 20.7796 21.3949V43.5348C20.7796 43.8747 21.0546 44.1497 21.3945 44.1497H37.3844C37.7243 44.1497 37.9993 43.8747 37.9993 43.5348C37.9993 43.1948 37.7243 42.9198 37.3844 42.9198H22.0094V22.0097H53.9891V25.0846C53.9894 25.4243 54.2643 25.6998 54.6043 25.6998L54.6047 25.7Z" fill="white"/>
<path d="M55.8352 18.3195H20.1648C19.1477 18.3195 18.3198 19.1475 18.3198 20.1646V44.7646C18.3198 45.7818 19.1477 46.6097 20.1648 46.6097H33.6945V49.6846C33.6945 50.0246 33.9695 50.2995 34.3095 50.2995H37.3844C37.7244 50.2995 37.9993 50.0246 37.9993 49.6846C37.9993 49.3446 37.7244 49.0697 37.3844 49.0697H34.9244V46.6097H37.3844C37.7244 46.6097 37.9993 46.3347 37.9993 45.9948C37.9993 45.6548 37.7244 45.3798 37.3844 45.3798L20.1649 45.3792C19.8255 45.3792 19.5499 45.1036 19.5499 44.7643L19.5496 20.1643C19.5496 19.8255 19.8252 19.5494 20.1645 19.5494H55.8349C56.1742 19.5494 56.4498 19.8255 56.4498 20.1643V25.0844C56.4498 25.4237 56.7247 25.6993 57.0647 25.6993C57.4047 25.6993 57.6796 25.4237 57.6796 25.0844L57.68 20.1643C57.68 19.1471 56.8523 18.3192 55.8352 18.3192L55.8352 18.3195Z" fill="white"/>
<path d="M24.4695 37.3844V38.6142C24.4695 38.9542 24.7445 39.2291 25.0845 39.2291H34.9243C35.2643 39.2291 35.5392 38.9542 35.5392 38.6142V37.3844C35.5392 35.6888 34.1599 34.3095 32.4643 34.3095C32.1243 34.3095 31.8494 34.585 31.8494 34.9244C31.8494 35.2637 32.1243 35.5393 32.4643 35.5393C33.4815 35.5393 34.3094 36.3673 34.3094 37.3844V37.9993L25.6992 37.9996V37.3847C25.6992 36.3675 26.5272 35.5396 27.5443 35.5396C27.8843 35.5396 28.1592 35.264 28.1592 34.9247C28.1592 34.5853 27.8843 34.3098 27.5443 34.3098C25.8488 34.3095 24.4691 35.6888 24.4691 37.3844L24.4695 37.3844Z" fill="white"/>
<path d="M33.6945 30.6203V29.3905C33.6945 27.3555 32.0395 25.7006 30.0047 25.7006C27.9698 25.7006 26.3148 27.3556 26.3148 29.3905V30.6203C26.3148 32.6552 27.9698 34.3102 30.0047 34.3102C32.0396 34.3102 33.6945 32.6552 33.6945 30.6203ZM27.5446 30.6203V29.3905C27.5446 28.0337 28.6478 26.9305 30.0046 26.9305C31.3614 26.9305 32.4646 28.0337 32.4646 29.3905V30.6203C32.4646 31.9771 31.3614 33.0803 30.0046 33.0803C28.6478 33.0803 27.5446 31.9768 27.5446 30.6203Z" fill="white"/>
<path d="M50.9148 44.15C50.5749 44.15 50.2999 44.425 50.2999 44.7649C50.2999 45.1049 50.5749 45.3799 50.9148 45.3799C51.932 45.3799 52.7599 46.2078 52.7599 47.2249V47.8399H44.1498V47.2249C44.1498 46.2078 44.9777 45.3799 45.9948 45.3799C46.3348 45.3799 46.6098 45.1049 46.6098 44.7649C46.6098 44.425 46.3348 44.15 45.9948 44.15C44.2993 44.15 42.9199 45.5294 42.9199 47.2249V48.4548C42.9199 48.7947 43.1949 49.0697 43.5349 49.0697H53.3747C53.7147 49.0697 53.9896 48.7947 53.9896 48.4548V47.2249C53.9896 45.5294 52.6103 44.15 50.9147 44.15H50.9148Z" fill="white"/>
<path d="M48.4547 44.15C50.4896 44.15 52.1445 42.495 52.1445 40.4602V39.2303C52.1445 37.1954 50.4895 35.5405 48.4547 35.5405C46.4198 35.5405 44.7648 37.1955 44.7648 39.2303V40.4602C44.7645 42.4951 46.4195 44.15 48.4547 44.15ZM45.9947 39.2299C45.9947 37.8731 47.0979 36.7699 48.4547 36.7699C49.8115 36.7699 50.9147 37.8731 50.9147 39.2299V40.4598C50.9147 41.8166 49.8115 42.9198 48.4547 42.9198C47.0979 42.9198 45.9947 41.8166 45.9947 40.4598V39.2299Z" fill="white"/>
</g>
</g>
<defs>
<clipPath id="clip0_2_48">
<rect width="75" height="75" fill="white"/>
</clipPath>
<clipPath id="clip1_2_48">
<rect width="40" height="40" fill="white" transform="translate(18 18)"/>
</clipPath>
</defs>
</svg>
