<svg width="75" height="75" viewBox="0 0 75 75" fill="none" xmlns="http://www.w3.org/2000/svg">
<g clip-path="url(#clip0_1_6)">
<rect width="75" height="75" fill="white"/>
<rect width="75" height="75" fill="#EF6D52"/>
<path d="M26.7788 23.9984C27.2056 23.9984 27.5529 23.6627 27.5529 23.2505C27.5529 22.8379 27.2056 22.5022 26.7788 22.5022C26.3516 22.5022 26.0046 22.8379 26.0046 23.2505C26.0046 23.6627 26.3519 23.9984 26.7788 23.9984Z" fill="white"/>
<path d="M29.7832 23.9984C30.21 23.9984 30.5574 23.6627 30.5574 23.2505C30.5574 22.8379 30.21 22.5022 29.7832 22.5022C29.356 22.5022 29.009 22.8379 29.009 23.2505C29.0087 23.6627 29.356 23.9984 29.7832 23.9984Z" fill="white"/>
<path d="M32.7876 23.9984C33.2145 23.9984 33.5615 23.6627 33.5615 23.2505C33.5615 22.8379 33.2141 22.5022 32.7876 22.5022C32.3604 22.5022 32.0134 22.8379 32.0134 23.2505C32.0131 23.6627 32.3607 23.9984 32.7876 23.9984Z" fill="white"/>
<path d="M35.8906 37.168H26.9097C26.5583 37.168 26.2735 37.4432 26.2735 37.7829C26.2735 38.1226 26.5583 38.3978 26.9097 38.3978H35.8898C36.2412 38.3978 36.526 38.1226 36.526 37.7829C36.5263 37.4432 36.2415 37.168 35.8901 37.168H35.8906Z" fill="white"/>
<path d="M35.8906 40.4852H26.9097C26.5583 40.4852 26.2735 40.7604 26.2735 41.1001C26.2735 41.4398 26.5583 41.715 26.9097 41.715H35.8898C36.2412 41.715 36.526 41.4398 36.526 41.1001C36.5263 40.7604 36.2415 40.4852 35.8901 40.4852H35.8906Z" fill="white"/>
<path d="M35.8906 43.8016H26.9097C26.5583 43.8016 26.2735 44.0768 26.2735 44.4165C26.2735 44.7562 26.5583 45.0314 26.9097 45.0314H35.8898C36.2412 45.0314 36.526 44.7562 36.526 44.4165C36.5263 44.0768 36.2415 43.8016 35.8901 43.8016H35.8906Z" fill="white"/>
<path d="M40.0226 38.3984H49.0027C49.3541 38.3984 49.6389 38.1232 49.6389 37.7835C49.6389 37.4438 49.3541 37.1686 49.0027 37.1686L40.0226 37.1683C39.6712 37.1683 39.3864 37.4435 39.3864 37.7832C39.3864 38.1232 39.6712 38.3984 40.0226 38.3984Z" fill="white"/>
<path d="M40.0226 41.7148H49.0027C49.3541 41.7148 49.6389 41.4396 49.6389 41.0999C49.6389 40.7602 49.3541 40.485 49.0027 40.485H40.0226C39.6712 40.485 39.3864 40.7602 39.3864 41.0999C39.3864 41.4396 39.6712 41.7148 40.0226 41.7148Z" fill="white"/>
<path d="M40.0226 45.032H49.0027C49.3541 45.032 49.6389 44.7568 49.6389 44.4171C49.6389 44.0774 49.3541 43.8022 49.0027 43.8022L40.0226 43.8019C39.6712 43.8019 39.3864 44.0771 39.3864 44.4168C39.3864 44.7568 39.6712 45.032 40.0226 45.032Z" fill="white"/>
<path d="M52.0298 20H23.8907C23.3988 20 23 20.3854 23 20.8609V55.9859C23 56.4614 23.3988 56.8469 23.8907 56.8469H52.0289C52.5209 56.8469 52.9197 56.4614 52.9197 55.9859L52.92 20.8617C52.92 20.386 52.5209 20.0005 52.0293 20.0005L52.0298 20ZM24.7815 26.0108H51.139L51.1387 33.9217H24.782L24.7815 26.0108ZM51.1382 21.7221V24.7809H24.7815V21.7221H51.1382ZM24.7815 55.1245V35.151H51.139V55.1245H24.7815Z" fill="white"/>
<path d="M35.8906 47.1188H26.7788C26.4273 47.1188 26.1426 47.394 26.1426 47.7337V52.7959C26.1426 53.1356 26.4273 53.4109 26.7788 53.4109H35.8906C36.2421 53.4109 36.5268 53.1356 36.5268 52.7959V47.7337C36.5272 47.3943 36.2424 47.1188 35.8909 47.1188H35.8906ZM35.2541 52.1813H27.4147V48.3492H35.2541V52.1813Z" fill="white"/>
<path d="M49.6946 47.6336C49.6914 47.6134 49.6861 47.5942 49.6807 47.5747C49.6757 47.5561 49.67 47.5378 49.663 47.5195C49.6545 47.4978 49.6447 47.4773 49.634 47.4569C49.6289 47.4471 49.6258 47.4364 49.6201 47.427C49.6166 47.4212 49.6116 47.4163 49.6078 47.4108C49.5955 47.3916 49.5816 47.3736 49.567 47.3559C49.555 47.3412 49.5437 47.3266 49.5304 47.3132C49.5162 47.2985 49.5004 47.2854 49.4846 47.272C49.4692 47.2588 49.454 47.246 49.4376 47.2344C49.4212 47.2228 49.4035 47.2134 49.3858 47.2036C49.3681 47.1938 49.3508 47.1838 49.3321 47.1755C49.3138 47.1673 49.2946 47.1612 49.275 47.1548C49.2551 47.1481 49.2352 47.1413 49.215 47.1368C49.197 47.1325 49.178 47.1304 49.1594 47.1276C49.1357 47.1243 49.1124 47.1215 49.0884 47.1206C49.0814 47.1203 49.0751 47.1188 49.0682 47.1188L39.9571 47.1191C39.9502 47.1191 39.9439 47.1209 39.9369 47.1209C39.9129 47.1215 39.8899 47.1243 39.8662 47.1279C39.8472 47.1307 39.8286 47.1328 39.8103 47.1371C39.7901 47.1416 39.7702 47.1484 39.7506 47.1551C39.731 47.1615 39.7118 47.1679 39.6932 47.1761C39.6748 47.1844 39.6578 47.1941 39.6401 47.2039C39.6224 47.214 39.6041 47.2234 39.5877 47.235C39.5713 47.2463 39.5564 47.2594 39.541 47.2723C39.5249 47.2857 39.5091 47.2988 39.4946 47.3135C39.4816 47.3269 39.4703 47.3415 39.4583 47.3559C39.4437 47.3736 39.4298 47.3916 39.4175 47.4111C39.4137 47.4169 39.409 47.4215 39.4052 47.4273C39.3992 47.4371 39.3964 47.4474 39.3913 47.4575C39.3806 47.478 39.3708 47.4984 39.3623 47.5198C39.355 47.5381 39.35 47.5564 39.3446 47.575C39.3392 47.5945 39.3345 47.6138 39.3307 47.6339C39.3269 47.6559 39.325 47.6775 39.3237 47.6995C39.3231 47.7111 39.3203 47.7218 39.3203 47.7337V52.796C39.3203 52.8079 39.3231 52.8185 39.3237 52.8301C39.325 52.8524 39.3269 52.8738 39.3307 52.8957C39.3339 52.9159 39.3392 52.9351 39.3446 52.9546C39.3496 52.9733 39.3553 52.9919 39.3623 53.0099C39.3708 53.0315 39.3806 53.0517 39.391 53.0721C39.3961 53.0819 39.3992 53.0926 39.4049 53.1024C39.4077 53.1069 39.4122 53.1103 39.4147 53.1149C39.4415 53.1573 39.4718 53.1973 39.5081 53.2324C39.5113 53.2354 39.5154 53.2378 39.5189 53.2409C39.5517 53.2711 39.5883 53.2974 39.6272 53.3202C39.6395 53.3276 39.6521 53.3337 39.6651 53.3401C39.6985 53.3569 39.7329 53.3703 39.7692 53.3813C39.7816 53.3849 39.7939 53.3895 39.8065 53.3926C39.8545 53.4039 39.9041 53.4112 39.9555 53.4112H49.0674C49.1192 53.4112 49.1684 53.4036 49.2164 53.3926C49.2291 53.3895 49.2411 53.3852 49.2537 53.3813C49.29 53.3706 49.325 53.3569 49.3579 53.3401C49.3708 53.3337 49.3835 53.3276 49.3958 53.3202C49.4346 53.2974 49.4712 53.2714 49.5041 53.2409C49.5072 53.2378 49.5113 53.2354 49.5148 53.2324C49.5511 53.1976 49.5814 53.1576 49.6083 53.1149C49.6111 53.1103 49.6155 53.1069 49.618 53.1024C49.624 53.0926 49.6266 53.0822 49.6319 53.0724C49.6427 53.052 49.6525 53.0315 49.661 53.0099C49.6683 52.9916 49.6733 52.9733 49.6787 52.9546C49.684 52.9351 49.6888 52.9159 49.6926 52.8957C49.6964 52.8738 49.6982 52.8521 49.6995 52.8301C49.7001 52.8185 49.703 52.8079 49.703 52.796V47.7337C49.703 47.7218 49.7001 47.7111 49.6995 47.6995C49.7005 47.6775 49.6986 47.6559 49.6948 47.6336H49.6946ZM40.5932 48.7966L43.236 50.2652L40.5932 51.7337V48.7966ZM42.3409 48.3486H46.6854L44.5131 49.5556L42.3409 48.3486ZM44.5131 50.974L46.6854 52.181H42.3409L44.5131 50.974ZM45.7897 50.2648L48.4324 48.7963V51.733L45.7897 50.2648Z" fill="white"/>
</g>
<defs>
<clipPath id="clip0_1_6">
<rect width="75" height="75" fill="white"/>
</clipPath>
</defs>
</svg>
