<svg width="75" height="75" viewBox="0 0 75 75" fill="none" xmlns="http://www.w3.org/2000/svg">
<g clip-path="url(#clip0_2_109)">
<rect width="75" height="75" fill="white"/>
<rect width="75" height="75" fill="#EF6D52"/>
<path d="M43.0405 51.9632H32.6506C32.4538 51.9632 32.2964 52.1603 32.2964 52.4066C32.2964 52.6529 32.4538 52.85 32.6506 52.85H43.0405C43.2373 52.85 43.3948 52.6529 43.3948 52.4066C43.3948 52.1599 43.2373 51.9632 43.0405 51.9632Z" fill="white"/>
<path d="M40.3251 51.2241C40.4432 51.2241 40.5613 51.0763 40.5613 50.9285V49.2539C40.5613 49.1061 40.4432 48.9583 40.3251 48.9583H35.3661C35.248 48.9583 35.1299 49.1061 35.1299 49.2539V50.8793C35.1299 51.0271 35.248 51.1748 35.3661 51.1748H40.3251V51.2241Z" fill="white"/>
<path d="M53.903 46.5939H21.3937C21.2756 46.5939 21.1181 46.5446 21 46.5446V47.6281C21 47.9729 21.1968 48.2193 21.4724 48.2193H54.2176C54.4932 48.2193 54.69 47.9729 54.69 47.6281V46.2983C54.4538 46.4953 54.1782 46.5939 53.903 46.5939Z" fill="white"/>
<path d="M54.0998 23H21.5905C21.2756 23 21 23.3449 21 23.739V44.6727C21 45.0668 21.2362 45.3624 21.5118 45.4116H21.4727H21.394H54.0603C54.3753 45.4116 54.6508 45.0668 54.6508 44.6727L54.6505 23.739C54.6899 23.3449 54.4143 23 54.0994 23H54.0998ZM33.7521 26.1526C33.7521 26.1033 33.7915 26.054 33.8308 26.054H41.899C41.9384 26.054 41.9777 26.1033 41.9777 26.1526V32.6544C41.9777 32.7037 41.9384 32.7529 41.899 32.7529L33.8308 32.7526C33.7915 32.7526 33.7521 32.7033 33.7521 32.654V26.1526ZM24.1489 26.1526C24.1489 26.1033 24.1883 26.054 24.2277 26.054H32.3356C32.375 26.054 32.4144 26.1033 32.4144 26.1526V32.6544C32.4144 32.7037 32.375 32.7529 32.3356 32.7529L24.2277 32.7526C24.1883 32.7526 24.1489 32.7033 24.1489 32.654V26.1526ZM24.1489 34.1812C24.1489 34.132 24.1883 34.0827 24.2277 34.0827H41.8599C41.8993 34.0827 41.9387 34.132 41.9387 34.1812V37.1856C41.9387 37.2348 41.8993 37.2841 41.8599 37.2841H24.2277C24.1883 37.2841 24.1489 37.2348 24.1489 37.1856V34.1812ZM28.2816 42.2588C28.2816 42.308 28.2422 42.3573 28.2029 42.3573H24.267C24.2276 42.3573 24.1882 42.308 24.1882 42.2588V38.7617C24.1882 38.7124 24.2276 38.6631 24.267 38.6631H28.2029C28.2422 38.6631 28.2816 38.7124 28.2816 38.7617V42.2588ZM51.5416 42.2588C51.5416 42.308 51.5022 42.3573 51.4629 42.3573H29.541C29.5017 42.3573 29.4623 42.308 29.4623 42.2588V38.7617C29.4623 38.7124 29.5017 38.6631 29.541 38.6631H51.4629C51.5022 38.6631 51.5416 38.7124 51.5416 38.7617V42.2588ZM51.5416 37.1856C51.5416 37.2348 51.5022 37.2841 51.4629 37.2841H43.3947C43.3553 37.2841 43.316 37.2348 43.316 37.1856V26.1527C43.316 26.1034 43.3553 26.0541 43.3947 26.0541H51.4629C51.5022 26.0541 51.5416 26.1034 51.5416 26.1527V37.1856Z" fill="white"/>
</g>
<defs>
<clipPath id="clip0_2_109">
<rect width="75" height="75" fill="white"/>
</clipPath>
</defs>
</svg>
