<svg width="75" height="75" viewBox="0 0 75 75" fill="none" xmlns="http://www.w3.org/2000/svg">
<g clip-path="url(#clip0_2_110)">
<rect width="75" height="75" fill="white"/>
<rect width="75" height="75" fill="#EF6D52"/>
<path d="M55.3118 18H20.6883C19.9755 18.0012 19.2927 18.3036 18.7887 18.8399C18.2847 19.3767 18.0011 20.1043 18 20.863V47.2136C18 48.0167 18.2993 48.7866 18.8326 49.3546C19.3659 49.9225 20.0892 50.2413 20.8434 50.2413H32.7057V52.0004C32.7079 52.4316 32.5303 52.8419 32.2212 53.1199L29.8912 54.9514C29.4845 55.3074 29.5423 55.8802 29.6005 56.4369V56.5969C29.6005 57.3721 30.1906 58 30.918 58H44.7474C45.4711 58 46.0596 57.3781 46.0649 56.6073V56.4369C46.1231 55.8797 46.1813 55.307 45.7453 54.9306L43.4735 53.1408C43.1595 52.8572 42.9815 52.4388 42.989 52.0004V50.2413H55.157C55.9111 50.2413 56.6341 49.9226 57.1674 49.3546C57.7007 48.7866 58 48.0168 58 47.2136V20.863C57.9989 20.1043 57.7153 19.3767 57.2113 18.84C56.7073 18.3036 56.0246 18.0012 55.3118 18ZM19.4673 20.863H19.4676C19.4676 20.1366 20.0205 19.5474 20.7029 19.5474H55.3119C55.6398 19.5474 55.9538 19.6862 56.1855 19.9326C56.4172 20.1794 56.5472 20.5142 56.5472 20.8629V43.1281H19.4528L19.4673 20.863ZM42.5967 54.3636L44.66 55.9886V56.2722V56.4526H31.097V56.2722V55.9886L33.1896 54.3432V54.3428C33.851 53.7696 34.2337 52.9089 34.2311 52.0006V50.2415H41.526V52.0006C41.5253 52.9213 41.9196 53.7912 42.5964 54.3636L42.5967 54.3636ZM55.157 48.6892L20.8441 48.6888C20.4756 48.6876 20.1226 48.5312 19.8623 48.2537C19.6017 47.9765 19.4548 47.6005 19.4537 47.2085V44.6756H56.5481V47.2138C56.547 47.6057 56.4001 47.9817 56.1395 48.2589C55.8792 48.5364 55.5262 48.6928 55.1581 48.694L55.157 48.6892Z" fill="white"/>
<path d="M47.8086 29.1638C47.038 29.1638 46.2985 29.4898 45.7536 30.0705C45.2086 30.6509 44.9025 31.438 44.9025 32.2592C44.9025 33.0799 45.2086 33.867 45.7536 34.4478C46.2985 35.0281 47.0379 35.3541 47.8086 35.3541C48.5793 35.3541 49.3188 35.0281 49.8637 34.4478C50.4087 33.867 50.7151 33.0799 50.7151 32.2592C50.7151 31.438 50.4087 30.6509 49.8637 30.0705C49.3188 29.4898 48.5793 29.1638 47.8086 29.1638ZM47.8086 33.8067C47.4233 33.8067 47.0538 33.6435 46.7811 33.3535C46.5088 33.0631 46.3555 32.6695 46.3555 32.2591C46.3555 31.8484 46.5088 31.4548 46.7811 31.1648C47.0537 30.8744 47.4233 30.7112 47.8086 30.7112C48.194 30.7112 48.5635 30.8744 48.8362 31.1648C49.1089 31.4547 49.2617 31.8483 49.2617 32.2591C49.267 32.6731 49.1164 33.0719 48.843 33.3666C48.57 33.6614 48.1974 33.8274 47.8087 33.8274L47.8086 33.8067Z" fill="white"/>
<path d="M54.6388 30.412C54.5498 29.8528 54.0747 29.4588 53.544 29.504L52.3816 29.5968L52.27 29.3852L52.9239 28.3533V28.3537C53.2244 27.8882 53.1425 27.2554 52.735 26.8938L51.9163 26.1663V26.1667C51.5125 25.8023 50.9146 25.8247 50.5357 26.2183L49.6979 27.085L49.4894 27.0026L49.3685 25.7647V25.7643C49.3159 25.2027 48.8712 24.776 48.3417 24.7788H47.2758C46.7391 24.7684 46.285 25.1999 46.2344 25.7695L46.1134 27.0074L45.905 27.0898L45.0671 26.2231V26.2235C44.6867 25.8291 44.0873 25.8067 43.6817 26.1719L42.8679 26.8994L42.8682 26.899C42.4611 27.2606 42.3774 27.8917 42.6744 28.3589L43.3332 29.3908L43.2168 29.6024L42.0544 29.5096V29.5092C41.5252 29.4668 41.0531 29.8604 40.9645 30.4172L40.7756 31.5367C40.6858 32.0919 41.0032 32.6298 41.5117 32.785L42.6354 33.1201L42.6741 33.3573L41.7052 34.0849H41.7055C41.2748 34.4132 41.1489 35.0364 41.4148 35.5244L41.9478 36.5095C42.2133 37.0379 42.8277 37.2423 43.3283 36.9687L44.3938 36.4527L44.5632 36.6075L44.2774 37.8146H44.2777C44.1467 38.3614 44.428 38.9245 44.9267 39.1145L45.9295 39.5012V39.5016C46.0425 39.5464 46.1623 39.5688 46.2829 39.5684C46.6769 39.5656 47.0344 39.3233 47.2034 38.9445L47.6879 37.8249H47.9106L48.3951 38.9445C48.6245 39.454 49.1811 39.6932 49.6788 39.4964L50.6816 39.1097H50.6812C51.1788 38.9153 51.4575 38.3509 51.3257 37.8046L51.0785 36.6023L51.2528 36.4475L52.3183 36.9635H52.3186C52.802 37.195 53.3717 36.9991 53.6361 36.5095L54.169 35.5244C54.4327 35.036 54.3072 34.4145 53.8784 34.0849L52.9094 33.3573L52.9481 33.1201L54.0669 32.785H54.0673C54.5792 32.6318 54.898 32.089 54.8034 31.5315L54.6388 30.412ZM52.3136 31.7015V31.7019C51.9272 31.8151 51.6357 32.1538 51.5629 32.5734L51.4513 33.3578C51.3807 33.7733 51.5411 34.1949 51.8629 34.4409L52.7155 35.096L52.5604 35.3796L51.5914 34.9204L51.5918 34.9208C51.2305 34.7496 50.8087 34.814 50.5068 35.086L49.9303 35.602V35.6016C49.6434 35.8823 49.5262 36.3095 49.6254 36.7107L49.8822 37.7938L49.5964 37.9074L49.112 36.8755V36.8759C48.9309 36.5023 48.5666 36.2699 48.1719 36.2775H47.4309C47.0358 36.2791 46.6757 36.5191 46.501 36.8967L46.0459 37.9286L45.7503 37.7942L46.0072 36.7111L46.0068 36.7107C46.1033 36.3019 45.9737 35.8699 45.6725 35.5963L45.0961 35.0804V35.0808C44.7949 34.8088 44.375 34.7408 44.0111 34.9052L43.0421 35.3644L42.887 35.0808L43.7395 34.4256H43.7399C44.0591 34.1769 44.2188 33.7573 44.1515 33.3421L44.0208 32.5582C43.9495 32.143 43.6648 31.8059 43.2847 31.6863L42.2771 31.3819L42.3305 31.0619L43.3768 31.1443V31.1447C43.7708 31.1727 44.146 30.9611 44.3454 30.598L44.7183 29.9016C44.9173 29.5372 44.9023 29.0837 44.6796 28.7357L44.0934 27.8069L44.3258 27.6006L45.0766 28.3797H45.077C45.3624 28.6729 45.7796 28.7669 46.1522 28.6221L46.8594 28.3485C47.232 28.2041 47.4934 27.8453 47.5328 27.4254L47.6395 26.3163H47.9448L48.0564 27.4254H48.056C48.095 27.8453 48.3568 28.2041 48.7294 28.3485L49.4366 28.6221C49.8076 28.7649 50.2226 28.6709 50.5069 28.3797L51.2626 27.6006L51.495 27.8069L50.9043 28.7357C50.6838 29.0844 50.6688 29.5368 50.8652 29.9016L51.243 30.598C51.4417 30.9619 51.8177 31.1739 52.212 31.1447L53.2583 31.0623L53.3117 31.3823L52.3136 31.7015Z" fill="white"/>
<path d="M23.7688 32.0062H21.986C21.5848 32.0062 21.2596 32.3526 21.2596 32.7797V39.3208C21.2596 39.7484 21.5848 40.0948 21.986 40.0948H23.7688C24.1699 40.0948 24.4951 39.7484 24.4951 39.3208V32.7797C24.4951 32.3526 24.1699 32.0062 23.7688 32.0062ZM23.042 38.5473H22.7127V33.5536H23.042V38.5473Z" fill="white"/>
<path d="M32.415 28.9314H30.6371C30.236 28.9314 29.9108 29.2777 29.9108 29.7049V39.3205C29.9108 39.7481 30.236 40.0945 30.6371 40.0945H32.415C32.8161 40.0945 33.1413 39.7481 33.1413 39.3205V29.7049C33.1413 29.2777 32.8161 28.9314 32.415 28.9314ZM31.7029 38.547H31.3638V30.4788H31.7029V38.547Z" fill="white"/>
<path d="M28.0895 26.0419H26.312C25.9105 26.0419 25.5853 26.3882 25.5853 26.8158V39.3199C25.5853 39.7475 25.9105 40.0938 26.312 40.0938H28.0895C28.491 40.0938 28.8162 39.7475 28.8162 39.3199V26.8158C28.8162 26.3882 28.491 26.0419 28.0895 26.0419ZM27.3436 38.546H27.0191V27.589H27.3436V38.546Z" fill="white"/>
<path d="M36.7405 22.323H34.963C34.5615 22.323 34.2363 22.6693 34.2363 23.0969V39.3209C34.2363 39.7485 34.5615 40.0949 34.963 40.0949H36.7405C37.142 40.0949 37.4672 39.7485 37.4672 39.3209V23.0969C37.4672 22.6693 37.142 22.323 36.7405 22.323ZM36.0142 38.547H35.6897V23.8701H36.0142V38.547Z" fill="white"/>
<path d="M38.9836 46.682C38.9836 47.2604 38.5434 47.7292 38.0003 47.7292C37.4572 47.7292 37.0168 47.2604 37.0168 46.682C37.0168 46.1037 37.4573 45.6349 38.0003 45.6349C38.5434 45.6349 38.9836 46.1036 38.9836 46.682Z" fill="white"/>
</g>
<defs>
<clipPath id="clip0_2_110">
<rect width="75" height="75" fill="white"/>
</clipPath>
</defs>
</svg>
